HIERARCHY
ROOT Hips
{
	OFFSET 0.000000 0.000000 0.000000
	CHANNELS 6 Xposition Yposition Zposition Zrotation Yrotation Xrotation 
	JOINT LowerBack
	{
		OFFSET 0.000000 0.000000 0.000000
		CHANNELS 3 Zrotation Yrotation Xrotation
		JOINT Spine
		{
			OFFSET 0.028270 2.035590 -0.193380
			CHANNELS 3 Zrotation Yrotation Xrotation
			JOINT Spine1
			{
				OFFSET 0.056720 2.048850 -0.042750
				CHANNELS 3 Zrotation Yrotation Xrotation
				JOINT Neck
				{
					OFFSET 0.000000 0.000000 0.000000
					CHANNELS 3 Zrotation Yrotation Xrotation
					JOINT Neck1
					{
						OFFSET -0.054170 1.746240 0.172020
						CHANNELS 3 Zrotation Yrotation Xrotation
						JOINT Head
						{
							OFFSET 0.104070 1.761360 -0.123970
							CHANNELS 3 Zrotation Yrotation Xrotation
							End Site
							{
								OFFSET 0.000000 0.000000 0.000000
							}
						}
					}
				}
				JOINT LeftShoulder
				{
					OFFSET 0.000000 0.000000 0.000000
					CHANNELS 3 Zrotation Yrotation Xrotation
					JOINT LeftArm
					{
						OFFSET 3.362410 1.200890 -0.311210
						CHANNELS 3 Zrotation Yrotation Xrotation
						JOINT LeftForeArm
						{
							OFFSET 4.983000 -0.000000 -0.000000
							CHANNELS 3 Zrotation Yrotation Xrotation
							JOINT LeftHand
							{
								OFFSET 3.483560 -0.000000 -0.000000
								CHANNELS 3 Zrotation Yrotation Xrotation
								JOINT LeftFingerBase
								{
									OFFSET 0.000000 0.000000 0.000000
									CHANNELS 3 Zrotation Yrotation Xrotation
									JOINT LeftHandIndex1
									{
										OFFSET 0.715260 -0.000000 -0.000000
										CHANNELS 3 Zrotation Yrotation Xrotation
										End Site
										{
											OFFSET 0.000000 0.000000 0.000000
										}
									}
								}
								JOINT LThumb
								{
									OFFSET 0.000000 0.000000 0.000000
									CHANNELS 3 Zrotation Yrotation Xrotation
									End Site
									{
										OFFSET 0.000000 0.000000 0.000000
									}
								}
							}
						}
					}
				}
				JOINT RightShoulder
				{
					OFFSET 0.000000 0.000000 0.000000
					CHANNELS 3 Zrotation Yrotation Xrotation
					JOINT RightArm
					{
						OFFSET -3.136600 1.374050 -0.404650
						CHANNELS 3 Zrotation Yrotation Xrotation
						JOINT RightForeArm
						{
							OFFSET -5.241900 -0.000000 -0.000000
							CHANNELS 3 Zrotation Yrotation Xrotation
							JOINT RightHand
							{
								OFFSET -3.444170 -0.000000 -0.000000
								CHANNELS 3 Zrotation Yrotation Xrotation
								JOINT RightFingerBase
								{
									OFFSET 0.000000 0.000000 0.000000
									CHANNELS 3 Zrotation Yrotation Xrotation
									JOINT RightHandIndex1
									{
										OFFSET -0.622530 -0.000000 -0.000000
										CHANNELS 3 Zrotation Yrotation Xrotation
										End Site
										{
											OFFSET 0.000000 0.000000 0.000000
										}
									}
								}
								JOINT RThumb
								{
									OFFSET 0.000000 0.000000 0.000000
									CHANNELS 3 Zrotation Yrotation Xrotation
									End Site
									{
										OFFSET 0.000000 0.000000 0.000000
									}
								}
							}
						}
					}
				}
			}
		}
	}
}
}
MOTION
Frames: 12
Frame Time: 0.008333
-1.598495 16.695500 -1.248788 175.483234 79.480045 -179.680921 -7.676634 1.402596 -1.979471 -2.236232 1.793724 -3.601793 -5.361624 1.673128 -0.387984 6.691737 -2.724928 -8.450630 -2.356708 -0.177755 -0.220240 0.000000 0.000000 0.000000 -7.457331 20.188861 2.506996 -64.023721 22.541503 -10.939078 -4.511720 -4.423039 -0.003133 4.167282 3.999543 0.151267 -0.103533 -0.062832 -0.000000 0.000000 0.000000 0.000000 0.000000 0.000000 0.000000 6.504520 4.718169 -0.450151 33.026094 32.318773 -6.802599 0.009395 67.083644 -0.031065 -2.464349 7.946923 -0.176710 -0.072132 -0.508956 -0.000000 0.000000 0.000000 0.000000 0.000000 0.000000 0.000000 
-1.488787 16.649267 -1.289038 173.746521 79.291999 178.634935 -8.040080 1.275160 -1.911516 -2.335887 1.689669 -3.619557 -5.496418 1.569584 -0.493084 6.927910 -2.434167 -8.418004 -2.486162 -0.187568 -0.221546 0.000000 0.000000 0.000000 -7.592244 19.738307 2.592073 -64.343336 21.226036 -9.751286 -4.483310 -5.265552 -0.004071 3.489306 4.238234 0.134371 -0.096951 -0.058495 -0.000000 0.000000 0.000000 0.000000 0.000000 0.000000 0.000000 7.142091 5.096224 -0.372656 34.886297 31.733042 -6.883120 0.055446 66.845373 -0.031788 -2.657525 8.037254 -0.193417 -0.065886 -0.508425 -0.000000 0.000000 0.000000 0.000000 0.000000 0.000000 0.000000 
-1.385706 16.601033 -1.328222 172.205061 79.036024 177.132908 -8.364229 1.145922 -1.768229 -2.425415 1.583099 -3.626878 -5.627454 1.463898 -0.621217 7.125066 -2.126741 -8.376101 -2.619972 -0.197592 -0.222120 0.000000 0.000000 0.000000 -7.777410 19.199952 2.684197 -64.575755 19.782444 -8.443435 -4.445173 -6.049497 -0.004634 2.926097 4.388968 0.116783 -0.090287 -0.053217 -0.000000 0.000000 0.000000 0.000000 0.000000 0.000000 0.000000 7.752296 5.481163 -0.287591 36.752578 31.059115 -7.039523 0.098121 66.574258 -0.033064 -2.922063 8.181778 -0.217326 -0.058760 -0.508303 -0.000000 0.000000 0.000000 0.000000 0.000000 0.000000 0.000000 
-1.288820 16.552129 -1.366628 170.860270 78.713787 175.806379 -8.651126 1.019233 -1.548092 -2.505697 1.478095 -3.621485 -5.755521 1.360235 -0.764062 7.290220 -1.826078 -8.328024 -2.757713 -0.207717 -0.222934 0.000000 0.000000 0.000000 -7.996558 18.589800 2.779677 -64.718306 18.179592 -7.006657 -4.397328 -6.740739 -0.004807 2.508300 4.439359 0.101302 -0.083494 -0.046989 -0.000000 0.000000 0.000000 0.000000 0.000000 0.000000 0.000000 8.350720 5.843201 -0.197006 38.600738 30.326831 -7.243208 0.136204 66.243557 -0.035155 -3.295536 8.396136 -0.252441 -0.050355 -0.508547 -0.000000 0.000000 0.000000 0.000000 0.000000 0.000000 0.000000 
-1.197465 16.504045 -1.404697 169.714659 78.326918 174.654462 -8.898887 0.900204 -1.257984 -2.576460 1.379157 -3.604593 -5.879796 1.262748 -0.920497 7.420993 -1.527461 -8.267322 -2.897074 -0.217820 -0.222087 0.000000 0.000000 0.000000 -8.236850 17.907387 2.877229 -64.774486 16.418610 -5.451848 -4.341428 -7.327346 -0.004642 2.257000 4.389626 0.090029 -0.076583 -0.039795 -0.000000 0.000000 0.000000 0.000000 0.000000 0.000000 0.000000 8.924926 6.181042 -0.104345 40.447240 29.516678 -7.485521 0.169417 65.838458 -0.038108 -3.787761 8.690144 -0.301160 -0.040708 -0.508949 -0.000000 0.000000 0.000000 0.000000 0.000000 0.000000 0.000000 
-1.110716 16.458338 -1.442784 168.747343 77.878480 173.658449 -9.112823 0.791737 -0.910402 -2.639510 1.288975 -3.575245 -6.001725 1.174150 -1.076766 7.529099 -1.268059 -8.202431 -3.037000 -0.227713 -0.221730 0.000000 0.000000 0.000000 -8.483687 17.175676 2.970429 -64.749301 14.481595 -3.801710 -4.279039 -7.804321 -0.004231 2.186486 4.253940 0.084262 -0.069576 -0.031662 -0.000000 0.000000 0.000000 0.000000 0.000000 0.000000 0.000000 9.497398 6.450560 -0.010432 42.266022 28.680736 -7.717651 0.197690 65.309656 -0.042099 -4.436843 9.067514 -0.368989 -0.029351 -0.509108 -0.000000 0.000000 0.000000 0.000000 0.000000 0.000000 0.000000 
-1.027606 16.416421 -1.481418 167.964403 77.370840 172.829763 -9.287611 0.697243 -0.524049 -2.693517 1.210229 -3.537344 -6.119447 1.096514 -1.233452 7.606559 -1.023319 -8.124024 -3.173401 -0.237195 -0.218820 0.000000 0.000000 0.000000 -8.728798 16.399924 3.059255 -64.653651 12.383986 -2.089109 -4.213015 -8.181272 -0.003718 2.297936 4.050724 0.083801 -0.062599 -0.022568 -0.000000 0.000000 0.000000 0.000000 0.000000 0.000000 0.000000 10.035455 6.671900 0.079489 44.098020 27.768795 -7.950357 0.221257 64.643179 -0.046897 -5.223622 9.520611 -0.456730 -0.016820 -0.508472 -0.000000 0.000000 0.000000 0.000000 0.000000 0.000000 0.000000 
-0.947113 16.379574 -1.521014 167.353454 76.807165 172.164242 -9.423801 0.617220 -0.118370 -2.738758 1.143206 -3.491598 -6.233110 1.030049 -1.378322 7.659076 -0.810673 -8.039009 -3.303575 -0.246001 -0.214781 0.000000 0.000000 0.000000 -8.964392 15.612530 3.138500 -64.498005 10.115026 -0.348435 -4.145884 -8.470695 -0.003254 2.582579 3.804542 0.087843 -0.055831 -0.012544 -0.000000 0.000000 0.000000 0.000000 0.000000 0.000000 0.000000 10.541335 6.823259 0.163159 45.938178 26.806656 -8.158125 0.240400 63.791758 -0.052368 -6.153089 10.032367 -0.567386 -0.003209 -0.506327 -0.000000 0.000000 0.000000 0.000000 0.000000 0.000000 0.000000 
-0.868204 16.348872 -1.562059 166.914283 76.190284 171.671118 -9.518042 0.550745 0.286453 -2.774364 1.086743 -3.439523 -6.342354 0.973469 -1.501858 7.688411 -0.634324 -7.952058 -3.424391 -0.253874 -0.210299 0.000000 0.000000 0.000000 -9.189092 14.845614 3.204016 -64.294311 7.671241 1.384717 -4.080525 -8.693273 -0.002995 3.020047 3.537120 0.094787 -0.049546 -0.001663 -0.000000 0.000000 0.000000 0.000000 0.000000 0.000000 0.000000 11.006851 6.898084 0.238440 47.790755 25.803507 -8.331904 0.255658 62.713706 -0.058194 -7.209766 10.574589 -0.700759 0.011092 -0.501885 -0.000000 0.000000 0.000000 0.000000 0.000000 0.000000 0.000000 
-0.790035 16.325174 -1.604940 166.639090 75.522327 171.349846 -9.569165 0.496244 0.671596 -2.800334 1.039233 -3.385068 -6.448941 0.924898 -1.605512 7.701800 -0.514285 -7.858194 -3.535232 -0.260946 -0.203100 0.000000 0.000000 0.000000 -9.406095 14.047084 3.252707 -64.062303 5.156719 2.963522 -4.019646 -8.933224 -0.003048 3.574381 3.267090 0.102929 -0.044006 0.009611 -0.000000 0.000000 0.000000 0.000000 0.000000 0.000000 0.000000 11.446296 6.874470 0.315523 49.636373 24.791549 -8.443040 0.269913 61.351910 -0.063983 -8.382245 11.107020 -0.855451 0.026039 -0.494325 -0.000000 0.000000 0.000000 0.000000 0.000000 0.000000 0.000000 
-0.711861 16.308847 -1.649997 166.531409 74.805372 171.213483 -9.570627 0.449077 1.022792 -2.814315 0.995985 -3.327055 -6.550335 0.879942 -1.673350 7.695183 -0.430833 -7.769654 -3.631393 -0.266728 -0.196172 0.000000 0.000000 0.000000 -9.616057 13.320545 3.282286 -63.806246 2.485811 4.469958 -3.964958 -9.173198 -0.003499 4.217461 2.996109 0.110669 -0.039630 0.021333 -0.000000 0.000000 0.000000 0.000000 0.000000 0.000000 0.000000 11.830178 6.775375 0.384913 51.493888 23.760629 -8.522646 0.283161 59.686031 -0.069142 -9.607349 11.582995 -1.021864 0.040506 -0.483006 -0.000000 0.000000 0.000000 0.000000 0.000000 0.000000 0.000000 
-0.633136 16.300136 -1.697533 166.590321 74.040550 171.266034 -9.517837 0.405123 1.327410 -2.815293 0.952792 -3.268765 -6.647611 0.834334 -1.708697 7.673400 -0.390398 -7.681024 -3.712806 -0.271405 -0.187258 0.000000 0.000000 0.000000 -9.823680 12.625920 3.292832 -63.542831 -0.249886 5.813746 -3.917453 -9.491276 -0.004350 4.908485 2.719959 0.116107 -0.036716 0.032985 -0.000000 0.000000 0.000000 0.000000 0.000000 0.000000 0.000000 12.167840 6.597568 0.456567 53.343511 22.734962 -8.565159 0.299552 57.676379 -0.073131 -10.836238 11.949155 -1.188193 0.054142 -0.467469 0.000000 0.000000 0.000000 0.000000 0.000000 0.000000 0.000000 
